<?xml version="1.0" encoding="iso-8859-1"?>
<!-- Generator: Adobe Illustrator 19.0.0, SVG Export Plug-In . SVG Version: 6.00 Build 0)  -->
<svg version="1.1" id="Layer_1" xmlns="http://www.w3.org/2000/svg" xmlns:xlink="http://www.w3.org/1999/xlink" x="0px" y="0px"
	 viewBox="0 0 512.001 512.001" style="enable-background:new 0 0 512.001 512.001;" xml:space="preserve">
<path style="fill:#6DC180;" d="M384.048,330.928c2.068-17.365,11.206-32.956,24.689-44.094c3.164-2.613,6.231-5.401,9.193-8.361
	c30.194-30.194,42.461-71.506,36.834-110.752c-2.14-14.919,5.853-29.386,19.287-36.217c7.413-3.77,14.293-8.955,20.233-15.564
	c23.273-25.885,23.61-65.759,0.735-91.996c-26.752-30.684-73.373-31.877-101.67-3.581c-5.446,5.446-9.796,11.573-13.054,18.105
	c-6.636,13.309-21.253,20.919-35.975,18.807c-39.247-5.628-80.558,6.64-110.752,36.834c-2.96,2.96-5.746,6.03-8.361,9.193
	c-11.47,13.885-28.037,22.605-45.897,24.913c-39.413,5.091-77.482,23.038-107.419,53.853C3.412,252.555,3.446,365.961,71.966,436.41
	c71.115,73.115,188.043,73.729,259.927,1.844C361.995,408.154,379.376,370.154,384.048,330.928z"/>
<path style="fill:#5CA15D;" d="M493.505,22.3l-417.82,417.82c71.414,69.399,185.562,68.78,256.208-1.865
	c30.1-30.1,47.482-68.101,52.154-107.326c2.068-17.365,11.206-32.956,24.689-44.094c3.164-2.613,6.231-5.399,9.193-8.361
	c30.194-30.194,42.461-71.506,36.834-110.752c-2.14-14.919,5.853-29.386,19.287-36.215c7.413-3.768,14.293-8.955,20.233-15.564
	c23.273-25.885,23.61-65.759,0.735-91.996C494.526,23.379,494.011,22.846,493.505,22.3z"/>
<polygon style="fill:#4E894D;" points="313.458,235.454 276.586,198.582 185.894,289.274 185.894,253.891 133.748,253.891 
	133.748,341.42 0.041,475.128 36.912,512.001 170.621,378.292 258.149,378.292 258.149,326.146 222.766,326.146 "/>
<g>
</g>
<g>
</g>
<g>
</g>
<g>
</g>
<g>
</g>
<g>
</g>
<g>
</g>
<g>
</g>
<g>
</g>
<g>
</g>
<g>
</g>
<g>
</g>
<g>
</g>
<g>
</g>
<g>
</g>
</svg>
