<?xml version="1.0" encoding="iso-8859-1"?>
<!-- Generator: Adobe Illustrator 19.0.0, SVG Export Plug-In . SVG Version: 6.00 Build 0)  -->
<svg version="1.1" id="Layer_1" xmlns="http://www.w3.org/2000/svg" xmlns:xlink="http://www.w3.org/1999/xlink" x="0px" y="0px"
	 viewBox="0 0 511.853 511.853" style="enable-background:new 0 0 511.853 511.853;" xml:space="preserve">
<path style="fill:#9ED36A;" d="M381.402,456.377l-9.543-34.49l69.994-42.721l-26.617-26.039l56.826-47.096l-35.316-30.209
	l54.373-58.045l-38.41-26.054l54.297-61.778l-43.612-14.979l48.438-114.95h0.016l0,0V0l-0.016,0.015l-114.95,48.454L381.917,4.842
	l-61.793,54.312l-26.039-38.426l-58.045,54.39l-30.209-35.317l-47.095,56.81L132.69,69.994l-42.714,70.01l-34.489-9.56
	c0,0-67.425,182.194,36.887,288.054l-0.008,0.016c0.164,0.172,0.328,0.328,0.492,0.484c0.164,0.172,0.32,0.326,0.484,0.498
	l0.008-0.016C199.216,523.793,381.402,456.377,381.402,456.377z"/>
<g style="opacity:0.2;">
	<path style="fill:#FFFFFF;" d="M511.847,0.015L511.847,0.015V0l-0.016,0.015l-83.709,127.446l36.379,13.808l-48.656,58.982
		l35.161,23.243l-53.827,59.404l31.1,23.133l-55.093,43.518l27.554,27.992l-58.201,28.648l7.998,32.988
		c0,0-164.84,51.344-255.477-22.102c5.592,7.857-9.802-5.795-2.687,1.422l-0.008,0.016c0.164,0.172,0.328,0.328,0.492,0.484
		c0.164,0.172,0.32,0.326,0.484,0.498l0.008-0.016c105.866,104.312,288.052,36.896,288.052,36.896l-9.543-34.49l69.994-42.721
		l-26.617-26.039l56.826-47.096l-35.316-30.209l54.373-58.045l-38.41-26.054l54.297-61.778l-43.612-14.979l48.438-114.95h0.016
		V0.015z"/>
</g>
<path style="fill:#8AC054;" d="M281.167,230.679c-4.155-4.155-10.91-4.155-15.074,0L3.135,493.647c0,0,0,0-0.008,0
	c-4.163,4.17-4.163,10.918,0,15.09c4.17,4.154,10.918,4.154,15.081,0l0,0l0,0l262.959-262.968l0,0
	C285.337,241.598,285.337,234.85,281.167,230.679z"/>
<g>
</g>
<g>
</g>
<g>
</g>
<g>
</g>
<g>
</g>
<g>
</g>
<g>
</g>
<g>
</g>
<g>
</g>
<g>
</g>
<g>
</g>
<g>
</g>
<g>
</g>
<g>
</g>
<g>
</g>
</svg>
